<svg fill="#26D964" height="21" width="115" xmlns="http://www.w3.org/2000/svg"><path d="M16.828 17.592c-1.18 0-2.26-.217-3.238-.652a6.084 6.084 0 0 1-2.173-1.612.322.322 0 0 1 .017-.427l1.373-1.44c.14-.148.374-.124.5.037.34.435.76.803 1.262 1.101.621.37 1.359.555 2.213.555.606 0 1.087-.088 1.444-.265.373-.193.56-.49.56-.893a.902.902 0 0 0-.257-.651c-.17-.194-.512-.346-1.025-.459l-2.05-.434c-1.351-.29-2.314-.724-2.889-1.303-.559-.596-.838-1.36-.838-2.293 0-.66.186-1.279.559-1.858.388-.58.963-1.046 1.724-1.4.76-.37 1.708-.555 2.842-.555 2.24 0 3.879.674 4.916 2.022a.32.32 0 0 1-.03.417l-1.44 1.454c-.143.145-.378.115-.502-.047a3.323 3.323 0 0 0-1.127-.95 3.464 3.464 0 0 0-1.724-.458c-1.367 0-2.05.394-2.05 1.182 0 .258.109.483.326.676.218.177.614.33 1.188.458l2.376.507c1.15.241 1.973.652 2.47 1.23.496.564.745 1.247.745 2.052 0 1.158-.45 2.115-1.351 2.871-.885.757-2.159 1.135-3.82 1.135zM31.474 5.285a.32.32 0 0 1 .315.326v1.81a.32.32 0 0 1-.315.325h-3.412v5.671c0 .58.14 1.006.419 1.279.295.257.691.386 1.188.386.404 0 .745-.056 1.025-.169.13-.057.255-.122.373-.194.203-.125.485-.03.54.207l.343 1.47a.315.315 0 0 1-.119.33 4.603 4.603 0 0 1-1.254.6 5.612 5.612 0 0 1-1.747.266c-1.164 0-2.12-.274-2.865-.82-.73-.564-1.095-1.505-1.095-2.824V7.746h-1.828a.32.32 0 0 1-.315-.326V5.61c0-.18.141-.325.315-.325h1.828V2.757c0-.146.094-.274.23-.314l2.563-.736c.2-.057.399.099.399.314v3.264h3.412zm3.458-1.738c-1.32 0-1.98-.587-1.98-1.761 0-1.19.66-1.786 1.98-1.786 1.32 0 1.98.595 1.98 1.786 0 1.174-.66 1.761-1.98 1.761zm1.27 1.738a.32.32 0 0 1 .314.326v11.414a.32.32 0 0 1-.314.325h-2.563a.32.32 0 0 1-.314-.325V5.61c0-.18.14-.326.314-.326h2.563zm3.08 12.065a.32.32 0 0 1-.315-.325V5.61c0-.18.141-.326.315-.326h2.253a.32.32 0 0 1 .314.307l.1 1.865c.389-.805.917-1.408 1.584-1.81a4.373 4.373 0 0 1 2.26-.604c.839 0 1.592.202 2.26.604.683.386 1.195.981 1.537 1.785.357-.804.908-1.4 1.654-1.785a4.799 4.799 0 0 1 2.306-.604c.761 0 1.452.161 2.073.483a3.603 3.603 0 0 1 1.515 1.448c.372.643.559 1.464.559 2.461v7.59a.32.32 0 0 1-.315.325H54.82a.32.32 0 0 1-.315-.325v-6.938c0-.885-.194-1.512-.582-1.882-.373-.37-.847-.555-1.421-.555-.715 0-1.32.273-1.817.82-.497.531-.746 1.327-.746 2.39v6.165a.32.32 0 0 1-.314.325h-2.563a.32.32 0 0 1-.314-.325v-6.938c0-.885-.194-1.512-.582-1.882-.373-.37-.854-.555-1.445-.555-.403 0-.807.112-1.211.337-.388.226-.714.58-.978 1.062-.249.483-.373 1.118-.373 1.907v6.069a.32.32 0 0 1-.315.325h-2.562zm24.828.242c-.776 0-1.475-.145-2.096-.435-.622-.29-1.119-.748-1.491-1.375-.358-.628-.536-1.456-.536-2.486V5.611c0-.18.14-.326.314-.326h2.563a.32.32 0 0 1 .314.326V12.5c0 .933.187 1.585.56 1.955.372.354.908.53 1.607.53.668 0 1.258-.249 1.77-.747.528-.515.792-1.336.792-2.462V5.611c0-.18.14-.326.315-.326h2.562a.32.32 0 0 1 .314.326v11.414a.32.32 0 0 1-.314.325h-2.23a.32.32 0 0 1-.315-.307l-.099-1.792c-.388.788-.924 1.376-1.607 1.762-.684.386-1.491.579-2.423.579zM76.355 0a.32.32 0 0 1 .315.326v13.308c0 .563.093.957.28 1.183.186.225.496.337.931.337.264 0 .482-.016.652-.048.05-.01.104-.021.162-.036a.34.34 0 0 1 .423.37l-.192 1.488a.301.301 0 0 1-.155.232c-.24.124-.529.22-.867.287a4.813 4.813 0 0 1-1.164.145c-1.134 0-1.965-.282-2.493-.845-.512-.579-.769-1.496-.769-2.75V.325c0-.18.141-.326.315-.326h2.562zm7.73 17.592c-.776 0-1.475-.145-2.096-.435-.621-.29-1.118-.748-1.491-1.375-.357-.628-.536-1.456-.536-2.486V5.611c0-.18.141-.326.315-.326h2.562a.32.32 0 0 1 .315.326V12.5c0 .933.186 1.585.559 1.955.373.354.908.53 1.607.53.668 0 1.258-.249 1.77-.747.528-.515.792-1.336.792-2.462V5.611c0-.18.141-.326.315-.326h2.562a.32.32 0 0 1 .315.326v11.414a.32.32 0 0 1-.315.325h-2.23a.32.32 0 0 1-.314-.307l-.1-1.792c-.388.788-.924 1.376-1.607 1.762-.683.386-1.49.579-2.423.579zm14.074 0c-1.18 0-2.26-.217-3.238-.652a6.084 6.084 0 0 1-2.173-1.612.322.322 0 0 1 .017-.427l1.373-1.44c.14-.148.374-.124.5.037.34.435.76.803 1.262 1.101.621.37 1.359.555 2.213.555.605 0 1.087-.088 1.444-.265.373-.193.559-.49.559-.893a.901.901 0 0 0-.256-.651c-.17-.194-.513-.346-1.025-.459l-2.05-.434c-1.351-.29-2.314-.724-2.889-1.303-.559-.596-.838-1.36-.838-2.293 0-.66.186-1.279.559-1.858.388-.58.963-1.046 1.724-1.4.76-.37 1.708-.555 2.842-.555 2.24 0 3.879.674 4.916 2.022a.32.32 0 0 1-.03.417l-1.439 1.454c-.144.145-.379.115-.503-.047a3.324 3.324 0 0 0-1.127-.95 3.464 3.464 0 0 0-1.724-.458c-1.367 0-2.05.394-2.05 1.182 0 .258.109.483.326.676.217.177.613.33 1.188.458l2.376.507c1.149.241 1.973.652 2.469 1.23.497.564.746 1.247.746 2.052 0 1.158-.45 2.115-1.351 2.871-.885.757-2.159 1.135-3.82 1.135zM109.121 8.95a1.242 1.242 0 1 0 0 2.485h4.637a1.242 1.242 0 0 0 0-2.485h-4.637zm-.481 7.388a1.242 1.242 0 0 0-.726 2.376l4.434 1.356a1.243 1.243 0 0 0 .727-2.376l-4.435-1.356zM5.88 11.419a1.242 1.242 0 0 0 0-2.484H1.241a1.242 1.242 0 0 0 0 2.484h4.637zm.48-7.065a1.242 1.242 0 0 0 .726-2.376L2.651.622a1.242 1.242 0 1 0-.726 2.376L6.36 4.354z"/></svg>